<?xml version="1.0" encoding="UTF-8" ?>
<!DOCTYPE svg PUBLIC "-//W3C//DTD SVG 1.1//EN" "http://www.w3.org/Graphics/SVG/1.1/DTD/svg11.dtd">
<svg width="1927pt" height="335pt" viewBox="0 0 1927 335" version="1.1" xmlns="http://www.w3.org/2000/svg">
<g id="#0060a5ff">
<path fill="#0060a5" opacity="1.00" d=" M 1590.43 0.00 L 1911.36 0.00 C 1919.28 0.63 1925.94 7.16 1927.00 14.99 L 1927.00 319.42 C 1926.33 327.48 1919.53 334.27 1911.50 335.00 L 1590.53 335.00 C 1581.94 334.40 1574.59 326.67 1574.80 318.00 C 1574.77 217.68 1574.78 117.36 1574.79 17.05 C 1574.57 8.39 1581.87 0.67 1590.43 0.00 M 1649.44 71.62 C 1640.60 73.47 1634.44 82.12 1634.55 90.98 C 1634.49 140.99 1634.56 190.99 1634.52 240.99 C 1634.43 245.35 1635.24 249.81 1637.52 253.58 C 1645.07 266.31 1666.89 266.12 1674.01 253.06 C 1677.54 246.96 1676.60 239.72 1676.72 232.99 C 1676.71 186.00 1676.73 139.00 1676.71 92.01 C 1676.76 86.05 1674.67 79.85 1670.09 75.87 C 1664.53 70.98 1656.45 69.97 1649.44 71.62 M 1704.17 80.21 C 1697.81 86.31 1697.81 97.71 1704.19 103.80 C 1708.61 108.06 1714.95 109.66 1720.96 109.71 C 1734.36 109.74 1747.77 109.70 1761.18 109.72 C 1761.19 153.51 1761.19 197.30 1761.18 241.09 C 1761.11 245.45 1761.95 249.93 1764.26 253.68 C 1771.67 265.96 1792.42 266.12 1800.10 254.04 C 1802.78 249.90 1803.52 244.86 1803.39 240.02 C 1803.37 196.58 1803.36 153.15 1803.39 109.71 C 1814.25 109.72 1825.12 109.72 1835.99 109.72 C 1843.59 109.84 1851.97 110.17 1858.44 105.45 C 1866.32 100.17 1867.44 87.78 1861.10 80.89 C 1856.57 75.94 1849.57 74.22 1843.08 74.25 C 1802.71 74.25 1762.35 74.25 1721.99 74.25 C 1715.64 74.17 1708.85 75.66 1704.17 80.21 Z" />
</g>
<g id="#2c2624ff">
<path fill="#2c2624" opacity="1.00" d=" M 1245.40 8.60 C 1250.38 7.08 1256.27 8.14 1259.99 11.92 C 1263.50 15.56 1265.41 21.01 1264.24 26.01 C 1262.77 31.56 1258.17 35.52 1253.56 38.56 C 1244.56 44.56 1235.73 50.82 1226.63 56.66 C 1221.39 60.24 1214.10 60.87 1208.71 57.29 C 1201.82 53.09 1200.96 42.33 1206.74 36.83 C 1212.46 31.14 1219.34 26.76 1225.58 21.67 C 1232.00 17.07 1237.73 11.09 1245.40 8.60 Z" />
<path fill="#2c2624" opacity="1.00" d=" M 614.53 62.70 C 628.07 60.87 641.90 61.79 655.22 64.70 C 665.28 67.06 675.59 70.53 683.26 77.73 C 688.46 82.55 691.30 89.90 690.10 96.97 C 689.17 104.33 683.66 111.23 676.18 112.60 C 668.48 114.16 661.35 110.14 654.37 107.58 C 638.80 101.70 620.51 100.74 605.32 108.29 C 591.74 115.06 582.70 128.59 578.60 142.89 C 574.13 158.62 573.92 175.67 578.45 191.41 C 582.43 205.21 591.12 218.19 604.03 225.02 C 619.80 233.39 639.31 232.45 655.36 225.31 C 662.00 222.62 668.56 218.38 676.03 219.02 C 683.42 219.55 689.40 225.38 691.89 232.10 C 695.09 240.05 692.10 249.43 686.14 255.26 C 678.81 262.51 668.79 266.13 658.99 268.60 C 638.98 273.24 617.60 273.80 597.91 267.40 C 580.26 261.78 564.46 250.64 553.10 236.02 C 540.33 219.75 533.04 199.56 531.12 179.06 C 529.12 157.78 532.25 135.82 541.48 116.45 C 548.43 101.77 558.98 88.73 572.23 79.28 C 584.67 70.35 599.38 64.73 614.53 62.70 Z" />
<path fill="#2c2624" opacity="1.00" d=" M 776.57 65.48 C 786.16 59.93 798.88 60.57 807.97 66.86 C 814.41 71.28 818.89 78.08 821.50 85.36 C 840.30 137.53 859.08 189.70 877.86 241.87 C 880.22 248.04 880.95 255.40 877.23 261.21 C 870.76 272.09 853.93 273.49 844.92 265.10 C 841.80 262.13 839.95 258.12 838.72 254.05 C 830.84 229.19 822.92 204.34 814.99 179.50 C 819.98 178.87 825.00 178.46 829.99 177.73 C 832.37 177.41 833.39 174.08 831.69 172.40 C 818.64 154.77 805.59 137.13 792.44 119.58 C 790.99 117.30 787.02 118.37 786.89 121.06 C 783.30 142.73 780.03 164.46 776.54 186.15 C 776.25 187.42 776.40 188.63 777.02 189.79 C 783.34 189.92 789.19 187.69 794.98 185.42 C 799.79 199.86 804.56 214.30 809.34 228.74 C 789.96 228.76 770.58 228.73 751.21 228.76 C 748.42 237.43 745.63 246.09 742.85 254.76 C 741.28 259.88 738.37 264.89 733.61 267.64 C 724.37 272.89 711.26 270.84 704.83 262.12 C 700.24 256.29 699.95 248.10 702.65 241.39 C 721.79 189.62 740.95 137.86 760.11 86.10 C 763.13 77.69 768.70 69.94 776.57 65.48 Z" />
<path fill="#2c2624" opacity="1.00" d=" M 969.46 62.67 C 986.44 60.54 1003.95 62.22 1020.19 67.62 C 1028.19 70.48 1036.32 74.57 1041.30 81.71 C 1046.58 89.16 1046.24 100.18 1040.23 107.12 C 1036.75 111.23 1031.23 113.38 1025.89 112.90 C 1019.27 112.37 1013.39 108.99 1007.20 106.90 C 992.61 101.84 975.87 101.08 961.58 107.53 C 948.29 113.52 938.92 126.01 934.34 139.59 C 929.02 155.38 928.41 172.74 932.43 188.90 C 935.99 203.03 944.21 216.55 957.00 224.05 C 972.61 233.23 992.52 232.76 1008.88 225.79 C 1016.06 223.01 1023.05 218.21 1031.09 219.06 C 1042.82 220.36 1050.61 234.04 1046.98 244.99 C 1043.95 255.44 1033.91 261.67 1024.31 265.32 C 1008.60 271.05 991.58 272.88 974.94 271.80 C 956.01 270.36 937.46 263.28 922.72 251.25 C 908.54 239.81 897.99 224.16 891.93 207.02 C 885.15 187.93 883.65 167.12 886.75 147.14 C 890.02 126.05 899.26 105.67 914.18 90.27 C 928.72 75.06 948.63 65.32 969.46 62.67 Z" />
<path fill="#2c2624" opacity="1.00" d=" M 355.39 64.45 C 362.54 62.44 370.90 63.36 376.72 68.23 C 381.62 72.29 383.90 78.78 383.92 85.01 C 383.97 118.68 383.90 152.35 383.96 186.02 C 384.01 198.88 388.48 212.11 397.90 221.13 C 409.18 232.13 426.79 235.34 441.59 230.48 C 453.16 226.68 462.52 217.43 467.33 206.34 C 470.46 199.34 471.82 191.63 471.69 183.98 C 471.68 151.31 471.70 118.64 471.68 85.98 C 471.59 79.85 473.43 73.39 477.97 69.07 C 484.77 62.63 495.76 61.86 503.95 65.96 C 510.92 69.44 514.59 77.36 514.57 84.91 C 514.63 115.93 514.57 146.94 514.59 177.95 C 514.55 185.01 514.85 192.11 513.84 199.12 C 511.64 216.20 503.84 232.48 491.99 244.96 C 479.58 258.14 462.90 267.13 445.14 270.51 C 423.76 274.63 400.87 270.97 382.08 259.88 C 368.04 251.67 356.42 239.31 349.35 224.64 C 343.81 213.28 341.06 200.63 341.04 188.01 C 341.01 154.34 341.04 120.67 341.02 87.00 C 340.29 77.43 345.61 66.96 355.39 64.45 Z" />
<path fill="#2c2624" opacity="1.00" d=" M 1083.10 64.20 C 1090.29 62.47 1098.61 63.65 1104.18 68.82 C 1108.91 73.14 1110.83 79.73 1110.75 85.98 C 1110.75 140.00 1110.76 194.03 1110.74 248.05 C 1110.86 254.98 1108.30 262.34 1102.48 266.47 C 1095.11 271.65 1084.56 271.77 1076.95 267.05 C 1070.58 263.06 1067.66 255.28 1067.84 248.01 C 1067.86 193.69 1067.82 139.37 1067.86 85.05 C 1067.56 75.71 1073.66 66.18 1083.10 64.20 Z" />
<path fill="#2c2624" opacity="1.00" d=" M 1345.77 70.83 C 1350.23 65.21 1357.91 62.71 1364.90 63.69 C 1370.76 64.93 1376.45 67.92 1380.30 72.58 C 1410.80 113.10 1441.03 153.82 1471.64 194.25 C 1471.84 157.86 1471.64 121.46 1471.73 85.07 C 1471.81 80.62 1472.84 76.10 1475.30 72.35 C 1482.94 60.49 1503.05 60.41 1510.88 72.12 C 1513.62 76.17 1514.65 81.15 1514.62 86.00 C 1514.63 139.34 1514.61 192.68 1514.64 246.02 C 1514.78 251.26 1514.09 256.74 1511.22 261.24 C 1506.78 268.52 1497.27 271.84 1489.14 269.84 C 1483.55 268.20 1478.22 265.07 1474.67 260.37 C 1449.22 226.79 1423.74 193.22 1398.28 159.65 C 1393.51 153.49 1388.99 147.13 1384.05 141.11 C 1383.91 177.07 1384.07 213.02 1383.97 248.97 C 1383.90 255.21 1381.61 261.69 1376.68 265.73 C 1370.65 270.69 1361.98 271.54 1354.70 269.22 C 1348.64 267.30 1343.84 262.16 1342.18 256.05 C 1340.83 251.83 1341.09 247.35 1341.09 242.98 C 1341.09 190.66 1341.09 138.35 1341.09 86.04 C 1341.02 80.66 1342.34 75.08 1345.77 70.83 Z" />
<path fill="#2c2624" opacity="1.00" d=" M 6.11 72.17 C 10.61 67.25 17.46 65.22 23.97 65.20 C 49.66 65.16 75.34 65.22 101.02 65.17 C 108.60 64.80 117.00 66.84 121.75 73.20 C 127.08 80.04 126.86 90.54 121.18 97.11 C 116.81 102.40 109.78 104.73 103.09 104.65 C 84.56 104.67 66.02 104.65 47.49 104.66 C 47.46 118.55 47.46 132.45 47.49 146.34 C 65.02 146.37 82.56 146.30 100.09 146.37 C 107.41 146.39 115.19 149.27 119.32 155.60 C 123.73 162.10 123.41 171.37 118.48 177.50 C 114.17 183.12 106.94 185.79 100.01 185.80 C 82.50 185.85 64.98 185.77 47.47 185.83 C 47.49 200.31 47.43 214.78 47.50 229.26 C 66.01 229.23 84.52 229.27 103.04 229.24 C 111.13 228.74 120.30 230.83 125.09 237.95 C 129.87 244.77 129.49 254.73 124.07 261.09 C 119.75 266.39 112.75 268.78 106.07 268.71 C 79.04 268.73 52.01 268.71 24.99 268.72 C 19.55 268.79 13.99 267.62 9.39 264.64 C 4.20 261.47 0.92 255.87 0.00 249.93 L 0.00 87.03 C 0.65 81.67 2.30 76.17 6.11 72.17 Z" />
<path fill="#2c2624" opacity="1.00" d=" M 170.36 65.44 C 187.21 64.85 204.11 65.36 220.98 65.18 C 243.03 65.01 265.78 70.07 283.89 83.14 C 300.38 94.83 311.78 112.75 317.22 132.06 C 322.47 150.68 323.54 170.46 320.73 189.58 C 317.47 211.18 307.29 232.13 290.48 246.39 C 273.06 261.45 249.80 268.39 227.03 268.69 C 209.67 268.75 192.31 268.71 174.95 268.71 C 168.24 268.73 161.18 266.39 156.73 261.16 C 153.38 257.27 152.05 252.02 152.12 246.97 C 152.11 194.65 152.14 142.34 152.11 90.02 C 151.95 85.20 152.41 80.18 154.82 75.90 C 157.87 70.11 163.94 66.29 170.36 65.44 M 195.04 104.66 C 195.03 146.19 195.03 187.72 195.04 229.25 C 204.03 229.26 213.02 229.25 222.01 229.25 C 230.74 229.37 239.63 228.17 247.63 224.54 C 260.24 219.10 269.33 207.47 273.52 194.60 C 278.60 179.01 278.73 162.00 275.24 146.05 C 271.96 131.15 262.81 116.93 248.66 110.37 C 231.98 102.15 212.93 105.27 195.04 104.66 Z" />
<path fill="#2c2624" opacity="1.00" d=" M 1208.58 65.78 C 1229.54 63.16 1251.45 64.78 1271.09 72.98 C 1286.81 79.50 1300.56 90.73 1309.87 105.01 C 1321.13 122.09 1326.11 142.69 1326.50 162.98 C 1326.97 185.89 1322.02 209.34 1309.85 228.96 C 1300.57 244.07 1286.72 256.36 1270.45 263.47 C 1251.28 272.00 1229.69 273.53 1209.04 271.17 C 1190.29 269.01 1171.63 262.27 1157.43 249.55 C 1141.84 235.83 1132.71 216.09 1128.89 195.94 C 1126.16 181.51 1125.45 166.67 1126.84 152.05 C 1128.87 131.66 1136.17 111.39 1149.76 95.84 C 1164.51 78.62 1186.31 68.59 1208.58 65.78 M 1216.52 101.69 C 1201.69 103.54 1187.88 112.45 1180.67 125.63 C 1171.84 141.07 1170.47 159.51 1171.71 176.91 C 1172.82 191.79 1176.27 207.31 1185.92 219.11 C 1193.31 228.25 1204.57 233.64 1216.12 235.11 C 1229.43 236.85 1243.77 235.57 1255.43 228.42 C 1264.82 222.75 1271.48 213.39 1275.33 203.25 C 1281.09 187.91 1282.18 171.14 1280.81 154.92 C 1279.22 138.15 1272.67 120.63 1258.56 110.48 C 1246.56 101.77 1230.92 99.70 1216.52 101.69 Z" />
</g>
</svg>
